<?xml version="1.0" encoding="UTF-8" standalone="no"?>
<!-- Generator: Adobe Illustrator 17.0.1, SVG Export Plug-In . SVG Version: 6.00 Build 0)  -->

<svg
   version="1.1"
   x="0px"
   y="0px"
   width="86px"
   height="86px"
   viewBox="0 0 86 86"
   enable-background="new 0 0 86 86"
   xml:space="preserve"
   id="svg3"
   sodipodi:docname="harbour-ordercorrect.svg"
   inkscape:version="1.4.4 (dcaf3e7, 2026-05-05)"
   xmlns:inkscape="http://www.inkscape.org/namespaces/inkscape"
   xmlns:sodipodi="http://sodipodi.sourceforge.net/DTD/sodipodi-0.dtd"
   xmlns="http://www.w3.org/2000/svg"
   xmlns:svg="http://www.w3.org/2000/svg"><defs
   id="defs3"><rect
     x="31.225591"
     y="60.089583"
     width="92.305241"
     height="96.605543"
     id="rect3" /><rect
     x="31.225592"
     y="60.089584"
     width="92.305244"
     height="96.605545"
     id="rect3-0" /></defs><sodipodi:namedview
   id="namedview3"
   pagecolor="#ffffff"
   bordercolor="#000000"
   borderopacity="0.25"
   inkscape:showpageshadow="2"
   inkscape:pageopacity="0.0"
   inkscape:pagecheckerboard="0"
   inkscape:deskcolor="#d1d1d1"
   inkscape:zoom="2.6947674"
   inkscape:cx="15.771306"
   inkscape:cy="104.64725"
   inkscape:window-width="1150"
   inkscape:window-height="1152"
   inkscape:window-x="752"
   inkscape:window-y="0"
   inkscape:window-maximized="0"
   inkscape:current-layer="g10" />
<g
   id="Layer_2"
   display="none">
</g>
<g
   id="Layer_1">
	<linearGradient
   id="SVGID_1_"
   gradientUnits="userSpaceOnUse"
   x1="85.2831"
   y1="0.7169"
   x2="0.7169"
   y2="85.2831">
		<stop
   offset="0.0054"
   style="stop-color:#ea8000;stop-opacity:1;"
   id="stop1" />
		<stop
   offset="1"
   style="stop-color:#904b00;stop-opacity:1;"
   id="stop2" />
	</linearGradient>
	<path
   fill="url(#SVGID_1_)"
   d="M84.277,0.3H43C19.417,0.3,0.3,19.418,0.3,43v41.277c0,0.786,0.637,1.423,1.423,1.423H43   c23.583,0,42.7-19.118,42.7-42.7V1.723C85.7,0.937,85.063,0.3,84.277,0.3z"
   id="path2" />
	<g
   id="g3"
   transform="translate(-6,-8)">
		<path
   fill="#ffffff"
   d="m 65.703448,36.831626 c -0.0564,-0.111616 -0.139742,-0.239527 -0.288743,-0.246045 -0.134691,-0.0073 -0.279484,0.08392 -0.445322,0.271302 0,0 -3.222482,5.375511 -6.019003,4.443474 -0.614528,-0.205309 -0.83761,-0.533641 -0.83761,-0.620816 0.0042,-0.41795 0.200353,-1.130014 0.441955,-1.545521 0.04377,-0.07169 1.038804,-1.767938 1.394893,-3.060082 0.295479,-1.077058 0.43522,-2.789596 -0.397338,-3.108151 -0.168364,-0.06925 -0.288744,-0.101839 -0.375451,-0.105098 -0.02526,-8.15e-4 -0.109437,-0.0041 -0.180149,0.06844 -0.196144,0.206124 -0.50425,0.42121 -0.728173,0.324258 -0.306422,-0.12954 -0.941154,-0.199606 -1.638179,-0.107543 -2.048145,0.264784 -4.590437,2.167151 -6.184,5.85864 -0.06061,0.07658 -2.037201,2.030278 -2.872285,2.000134 -0.08418,-0.140132 -0.198669,-0.558082 -0.118696,-1.46079 0.06229,-0.769094 0.284534,-2.100344 0.971458,-4.091516 l 8.42e-4,-0.0024 C 55.354131,28.265677 58.755078,23.087327 58.260088,20.468007 58.14055,19.827639 57.77941,19.34777 57.222126,19.082171 c -0.176782,-0.08473 -0.414175,-0.101839 -0.584222,-0.101839 -0.513509,0 -2.383189,0.187385 -4.672093,2.620134 -2.408443,2.55903 -4.442277,6.674988 -6.051834,12.236255 -0.246653,0.870934 -0.476469,1.706835 -0.68019,2.490595 -0.447847,0.404915 -0.886435,0.817162 -1.317446,1.219633 -1.711417,1.608254 -3.48597,3.271909 -4.36988,3.271909 -0.09428,0 -0.17594,-0.02444 -0.246653,-0.07251 -0.06566,-0.07658 -0.233184,-0.573562 -0.09176,-1.879555 0.141425,-1.224522 0.503407,-2.742342 1.03712,-4.280531 C 47.148925,27.424888 50.421915,22.564278 49.967333,20.139676 49.839377,19.509898 49.475711,19.033288 48.888964,18.757099 48.714707,18.673183 48.475631,18.652 48.308109,18.652 c -0.514351,0 -2.383189,0.190644 -4.672093,2.622579 -2.402551,2.551698 -4.433017,6.653805 -6.038365,12.189816 -0.196144,0.239527 -1.101099,1.029804 -1.639021,1.351618 -0.119538,-0.893746 -0.894011,-1.581368 -1.688688,-1.763865 -0.184358,-0.03911 -0.377135,-0.06273 -0.567386,-0.06273 -1.035437,0 -1.998477,0.62326 -2.805781,1.232669 -0.965566,0.727544 -2.080976,1.694614 -3.016236,3.319163 -1.266937,2.207887 -2.308267,5.777983 -0.660828,6.812675 0.372084,0.234639 0.787943,0.356032 1.229055,0.356032 8.42e-4,0 0,0 8.42e-4,0 2.24008,0 4.607273,-3.019346 5.328712,-4.181949 0.771948,-1.235928 1.540528,-2.848256 1.943759,-3.879689 0.376293,-0.11732 0.798044,-0.308779 1.187806,-0.510829 -0.955464,3.892725 -1.004289,6.308365 -0.155736,7.36261 0.324942,0.404915 0.770264,0.614298 1.325864,0.614298 0.867073,0 1.795599,-0.511643 2.420228,-0.890487 0.61537,-0.373141 2.059089,-1.63514 4.010424,-3.50166 -0.226449,1.702762 -0.06482,2.852329 0.490781,3.50166 0.330834,0.383732 0.779524,0.577635 1.339333,0.577635 0.628838,0 1.298084,-0.253377 1.86547,-0.540158 0.764371,-0.360106 1.40247,-0.769909 1.438668,-0.800868 0.153211,-0.123838 0.3241,-0.1882 0.473944,-0.182497 0.163313,0.0049 0.298004,0.08229 0.366191,0.219974 0.02694,0.05947 0.937786,1.481158 1.969014,1.481158 1.717309,0 2.875652,-1.253037 2.945523,-1.310067 0.12964,-0.106729 0.276958,-0.1605 0.403231,-0.154797 0.164996,0.0057 0.28706,0.150723 0.400706,0.28841 0.197827,0.238713 1.164235,1.04121 2.274593,1.08602 1.713943,0.06599 3.373167,-0.702287 4.868237,-2.255141 0.478153,-0.496978 2.51788,-3.476403 2.521247,-3.882133 0,-0.2436 -0.04967,-0.691696 -0.164155,-0.919817 z M 54.749705,21.63061 c 0.874649,2.98187 -3.201436,7.997276 -5.316926,10.468317 1.298926,-4.058112 4.2958,-8.885319 5.316926,-10.468317 z m -8.334846,-0.353587 c 0.908322,2.922395 -3.083582,7.448155 -5.209174,9.815727 1.277881,-3.96442 4.204043,-8.366343 5.209174,-9.815727 z M 31.680508,40.109238 c -0.526137,0.540159 -1.043855,0.866046 -1.392368,0.866046 -0.04125,0 -0.08334,-0.0057 -0.118696,-0.01874 -0.349355,-0.110801 -0.564019,-0.361734 -0.65241,-0.774797 -0.208771,-0.950776 0.282851,-2.353721 0.677664,-3.138295 0.170048,0.272931 0.455424,0.53527 0.920108,0.685178 0.263489,0.08555 0.539606,0.131985 0.820773,0.131985 0.450373,0 0.859497,-0.114876 1.197066,-0.241972 -0.162471,0.753615 -0.72228,1.73535 -1.452137,2.490595 z m 25.346316,-3.473959 c -0.0025,0.01222 -1.061533,2.902027 -1.332599,3.274353 -0.225607,0.307149 -1.00008,1.040396 -1.854526,0.939371 -0.475628,-0.05214 -1.431934,-0.824495 -1.049748,-1.965101 0.708811,-2.119083 2.31921,-3.451147 3.460716,-3.454406 0.872966,-0.0057 0.932735,0.800053 0.776157,1.205783 z m -30.64388,-7.242032 c -0.313999,0.342997 -0.78205,0.549935 -1.248417,0.549935 v 0 c -0.612002,0 -1.109517,-0.334034 -1.366272,-0.919002 -0.414175,-0.940185 -0.642307,-2.035981 0.798044,-2.996534 0.160787,-0.109173 0.332518,-0.165388 0.5093,-0.165388 0.736592,0 1.298926,0.933667 1.50433,1.336138 0.461317,0.901079 0.405757,1.539818 -0.196985,2.194851 z M 24.96027,41.827479 c 0.270224,-0.744652 0.519402,-1.418424 0.739959,-2.013983 0.860338,-2.303209 1.332599,-3.576614 1.302293,-4.664263 -0.0303,-1.052616 -0.562335,-1.93903 -1.320813,-2.196481 -0.140584,-0.04807 -0.287902,-0.07332 -0.437746,-0.07332 -0.570753,0 -1.041329,0.331591 -1.27283,0.62163 -0.295478,0.372327 -0.211296,0.867676 -0.127114,1.34673 0.0362,0.210197 0.07576,0.425283 0.08081,0.636295 0.0362,1.209042 -0.743325,4.317193 -1.179387,5.376327 -0.363666,0.883969 -3.919508,3.588834 -4.576968,4.052409 -2.454743,1.736165 -6.855771,5.237825 -8.7515463,9.202244 -1.5531553,3.253986 -0.4023893,4.929861 -0.2651728,5.108285 l 0.00926,0.01141 c 0.5926403,0.788647 1.3595371,0.95485 1.8974591,0.95485 v 0 c 0.602742,0 1.271988,-0.201236 1.990059,-0.599633 2.910167,-1.611513 7.908044,-8.582244 9.95703,-13.160146 0.12459,-0.284337 0.723123,-1.486861 0.885594,-1.672617 0.0564,-0.06681 0.241602,-0.175979 0.421751,-0.273746 0.251704,-0.145019 0.538764,-0.309593 0.671771,-0.466833 0.243286,-0.281893 0.466367,-0.885599 0.03283,-1.297847 -0.316524,-0.304704 -0.225607,-0.505125 -0.119538,-0.739764 0.01936,-0.0497 0.04377,-0.10184 0.06229,-0.151538 z M 11.459184,55.127757 c -0.210455,-0.941814 1.331757,-3.113853 2.491783,-4.358743 l 0.04041,-0.04237 c 1.242524,-1.32962 1.994268,-2.128044 3.706527,-3.404708 1.562416,-1.165862 2.271227,-1.464049 2.586909,-1.520264 -0.170889,0.445651 -0.415017,1.003733 -0.973143,1.895849 -2.381504,3.798218 -5.663755,7.886475 -7.232063,7.886475 -0.101018,0 -0.193618,-0.01792 -0.274433,-0.05377 -0.189409,-0.0774 -0.303055,-0.208568 -0.345987,-0.402471 z"
   id="path3"
   style="stroke-width:0.828158" />
	</g>
<g
   id="g10"
   transform="translate(-4)"><path
     style="font-weight:500;font-size:24px;font-family:'Source Sans 3';-inkscape-font-specification:'Source Sans 3 Medium';white-space:pre;fill:#ffffff"
     d="m 39.266562,82.214848 q -2.016,0 -3.552,-0.984 -1.536,-1.008 -2.424,-2.856 -0.863999,-1.848 -0.863999,-4.368 0,-2.544 0.863999,-4.344 0.888,-1.824 2.424,-2.784 1.536,-0.96 3.552,-0.96 2.016,0 3.552,0.96 1.536,0.96 2.4,2.784 0.888,1.8 0.888,4.344 0,2.52 -0.888,4.368 -0.864,1.848 -2.4,2.856 -1.536,0.984 -3.552,0.984 z m 0,-2.112 q 1.32,0 2.28,-0.744 0.984001,-0.744 1.512,-2.112 0.552,-1.392 0.552,-3.24 0,-1.872 -0.552,-3.192 -0.527999,-1.344 -1.512,-2.064 -0.96,-0.744 -2.28,-0.744 -1.32,0 -2.303999,0.744 -0.984,0.72 -1.536,2.064 -0.528001,1.32 -0.528001,3.192 0,1.848 0.528001,3.24 0.552,1.368 1.536,2.112 0.983999,0.744 2.303999,0.744 z m 9.888016,1.824 v -11.736 h 1.944 l 0.192,2.112 h 0.072 q 0.6,-1.128 1.464,-1.752 0.888,-0.648 1.872,-0.648 0.408,0 0.696,0.072 0.312,0.048 0.576,0.168 l -0.48,2.04 q -0.264,-0.072 -0.504,-0.096 -0.24,-0.048 -0.6,-0.048 -0.72,0 -1.512,0.576 -0.792,0.552 -1.344,1.968 v 7.344 z m 12.432009,0.288 q -2.184,0 -3.504,-1.608 -1.32,-1.632 -1.32,-4.536 0,-1.896 0.696,-3.264 0.72,-1.392 1.872,-2.136 1.152,-0.768 2.448,-0.768 1.032,0 1.752,0.36 0.72,0.336 1.44,0.96 l -0.096,-1.944 v -4.368 h 2.376 v 17.016 h -1.944 l -0.192,-1.32 h -0.072 q -0.672,0.648 -1.56,1.128 -0.888,0.48 -1.896,0.48 z m 0.576,-1.968 q 0.744,0 1.392,-0.36 0.672,-0.36 1.32,-1.104 v -5.808 q -0.672,-0.6 -1.32,-0.84 -0.624,-0.24 -1.296,-0.24 -0.84,0 -1.536,0.504 -0.672,0.504 -1.104,1.44 -0.408,0.936 -0.408,2.208 0,2.016 0.768,3.12 0.768,1.08 2.184,1.08 z m 13.704,1.968 q -1.632,0 -2.928,-0.72 -1.296,-0.744 -2.064,-2.112 -0.744,-1.368 -0.744,-3.312 0,-1.92 0.768,-3.288 0.768,-1.392 1.992,-2.136 1.224,-0.744 2.592,-0.744 1.56,0 2.616,0.72 1.056,0.696 1.584,1.944 0.552,1.224 0.552,2.88 0,0.336 -0.024,0.672 -0.024,0.336 -0.096,0.648 h -8.256 v -1.848 h 6.264 q 0,-1.488 -0.648,-2.28 -0.648,-0.816 -1.944,-0.816 -0.744,0 -1.44,0.408 -0.696,0.384 -1.152,1.32 -0.456,0.912 -0.456,2.496 0,1.44 0.504,2.376 0.504,0.936 1.344,1.416 0.84,0.456 1.8,0.456 0.816,0 1.512,-0.216 0.72,-0.24 1.32,-0.624 l 0.84,1.536 q -0.792,0.552 -1.8,0.888 -0.984,0.336 -2.136,0.336 z m 7.127987,-0.288 v -11.736 h 1.944 l 0.192,2.112 h 0.072 q 0.6,-1.128 1.464,-1.752 0.888,-0.648 1.872,-0.648 0.408,0 0.696,0.072 0.312,0.048 0.576,0.168 l -0.48,2.04 q -0.264,-0.072 -0.504,-0.096 -0.24,-0.048 -0.6,-0.048 -0.72,0 -1.512,0.576 -0.792,0.552 -1.344,1.968 v 7.344 z"
     id="text3"
     transform="translate(-7.3049994,-21.690422)"
     aria-label="Order" /><path
     style="font-weight:500;font-size:24px;font-family:'Source Sans 3';-inkscape-font-specification:'Source Sans 3 Medium';white-space:pre;fill:#ffffff"
     d="m 33.290562,81.926848 v -15.72 h 2.952 l 2.808,8.04 q 0.288001,0.768 0.528001,1.536 0.239999,0.768 0.455999,1.632 h 0.096 q 0.24,-0.864 0.456,-1.632 0.240001,-0.768 0.480001,-1.536 l 2.831999,-8.04 h 2.928001 v 15.72 h -2.232 v -7.896 q 0,-0.72 0.048,-1.632 0.048,-0.912 0.120001,-1.8 0.096,-0.912 0.192,-1.632 h -0.096 l -1.248001,3.912 -2.736,7.536 h -1.679999 l -2.736001,-7.536 -1.223999,-3.912 h -0.096 q 0.096,0.72 0.168,1.632 0.072,0.888 0.120001,1.8 0.048,0.912 0.048,1.632 v 7.896 z m 20.232002,0.288 q -1.008,0 -1.8,-0.408 -0.768,-0.408 -1.224,-1.176 -0.432,-0.768 -0.432,-1.8 0,-1.992 1.68,-3 1.704,-1.008 5.376,-1.416 0,-0.648 -0.216,-1.224 -0.192,-0.6 -0.696,-0.936 -0.504,-0.36 -1.368,-0.36 -0.936,0 -1.8,0.336 -0.84,0.336 -1.608,0.816 l -0.888,-1.632 q 0.6,-0.384 1.344,-0.72 0.744,-0.36 1.584,-0.576 0.864,-0.216 1.8,-0.216 1.44,0 2.376,0.6 0.936,0.6 1.392,1.704 0.456,1.104 0.456,2.664 v 7.056 h -1.968 l -0.168,-1.344 h -0.096 q -0.816,0.672 -1.752,1.152 -0.912,0.48 -1.992,0.48 z m 0.72,-1.944 q 0.768,0 1.44,-0.336 0.696,-0.36 1.44,-1.032 v -2.808 q -1.776,0.216 -2.832,0.576 -1.032,0.336 -1.488,0.84 -0.432,0.48 -0.432,1.152 0,0.864 0.528,1.248 0.552,0.36 1.344,0.36 z m 8.736005,1.656 v -11.736 h 2.376 v 11.736 z m 1.2,-13.968 q -0.648,0 -1.08,-0.384 -0.408,-0.408 -0.408,-1.056 0,-0.624 0.408,-1.008 0.432,-0.408 1.08,-0.408 0.672,0 1.08,0.408 0.408,0.384 0.408,1.008 0,0.648 -0.408,1.056 -0.408,0.384 -1.08,0.384 z m 7.295994,14.208 q -0.864001,0 -1.392001,-0.36 -0.527999,-0.36 -0.768,-1.008 -0.24,-0.672 -0.24,-1.608 v -14.28 h 2.376001 v 14.424 q 0,0.504 0.167999,0.696 0.192001,0.168 0.432,0.168 0.096,0 0.168001,0 0.096,-0.024 0.239999,-0.048 l 0.336,1.776 q -0.239999,0.096 -0.575999,0.168 -0.312,0.072 -0.744,0.072 z"
     id="text3-4"
     transform="translate(-8.312995,-2.6043161)"
     aria-label="Mail" /></g></g>
</svg>

